<svg xmlns="http://www.w3.org/2000/svg" width="31.387" height="29.554" viewBox="0 0 31.387 29.554">
  <path id="Jeu_Nav" data-name="Jeu  Nav" d="M-6092.036,11875.488l-8.809-1.4a5.316,5.316,0,0,1-3.553-2.229h4.316a5.519,5.519,0,0,0,1.3-.156l7.161,1.138a2.8,2.8,0,0,0,.423.032,2.676,2.676,0,0,0,1.726-.636,2.664,2.664,0,0,0,.917-1.622l2.231-14.093a2.661,2.661,0,0,0-.479-1.991,2.649,2.649,0,0,0-1.745-1.072l-5.943-.94v-1.773a5.892,5.892,0,0,0-.074-.946l6.435,1.018a5.307,5.307,0,0,1,3.488,2.144,5.308,5.308,0,0,1,.96,3.98l-2.234,14.093a5.36,5.36,0,0,1-1.827,3.246,5.346,5.346,0,0,1-3.451,1.271A5.688,5.688,0,0,1-6092.036,11875.488Zm-17.613-4.515a5.353,5.353,0,0,1-5.35-5.353v-14.271a5.35,5.35,0,0,1,5.35-5.35h8.918a5.351,5.351,0,0,1,5.353,5.35v14.271a5.353,5.353,0,0,1-5.353,5.353Zm-2.675-19.623v14.271a2.677,2.677,0,0,0,2.675,2.675h8.918a2.679,2.679,0,0,0,2.677-2.675v-14.271a2.679,2.679,0,0,0-2.677-2.675h-8.918A2.677,2.677,0,0,0-6112.324,11851.351Z" transform="translate(6114.999 -11846.001)" fill="#272727"/>
</svg>
